# Blender v2.80 (sub 75) OBJ File: ''
# www.blender.org
mtllib overlay.mtl
o Plane.000
v 0.395000 -0.145000 1.395000
v 0.292500 -0.082500 1.395000
v 0.395000 -0.082500 1.395000
v 0.395000 -0.207500 -0.020000
v 0.292500 -0.207500 1.270000
v 0.395000 -0.207500 1.270000
v 0.395000 -0.145000 -0.082500
v 0.292500 -0.145000 -0.020000
v 0.395000 -0.145000 -0.020000
v 0.395000 0.145000 -0.082500
v 0.292500 -0.145000 -0.082500
v 0.395000 0.082500 1.520000
v 0.292500 0.082500 1.395000
v 0.395000 0.082500 1.395000
v 0.395000 0.207500 1.270000
v 0.292500 0.207500 -0.020000
v 0.395000 0.207500 -0.020000
v 0.292500 -0.207500 -0.020000
v 0.292500 -0.082500 1.520000
v 0.395000 -0.082500 1.520000
v 0.395000 0.145000 1.395000
v 0.292500 0.145000 1.270000
v 0.395000 0.145000 1.270000
v 0.292500 0.145000 -0.020000
v 0.395000 0.145000 -0.020000
v 0.292500 0.207500 1.270000
v 0.292500 0.145000 1.395000
v 0.292500 -0.145000 1.270000
v 0.395000 -0.145000 1.270000
v 0.292500 -0.145000 1.395000
v 0.292500 0.145000 -0.082500
v 0.292500 0.082500 1.520000
vt 0.875093 0.058871
vt 0.812593 0.128242
vt 0.875093 0.128242
vt 1.500000 0.562500
vt 0.250000 0.500000
vt 0.250000 0.562500
vt 1.562500 0.562500
vt 1.500000 0.500000
vt 1.500000 0.562500
vt 0.312469 0.374993
vt 0.374969 0.062603
vt 0.312469 0.062603
vt 0.000000 0.937500
vt 0.125000 1.000000
vt 0.125000 0.937500
vt 0.250000 0.937500
vt 1.500000 1.000000
vt 1.500000 0.937500
vt 0.312469 0.062603
vt 0.374969 0.000000
vt 0.312469 0.000000
vt 0.125000 0.562500
vt 0.000000 0.500000
vt 0.000000 0.562500
vt 0.125000 0.937500
vt 0.250000 1.000000
vt 0.250000 0.937500
vt 0.312469 0.437596
vt 0.374969 0.374993
vt 0.312469 0.374993
vt 0.875093 0.375013
vt 0.812593 0.437384
vt 0.875093 0.437384
vt 0.875093 0.312642
vt 0.812593 0.375013
vt 0.875093 0.375013
vt 0.875093 0.000000
vt 0.812593 0.058871
vt 0.875093 0.058871
vt 0.250000 0.562500
vt 0.125000 0.500000
vt 0.125000 0.562500
vt 1.500000 0.937500
vt 1.562500 1.000000
vt 1.562500 0.937500
vt 0.875093 0.128242
vt 0.812593 0.312642
vt 0.875093 0.312642
vt 1.440620 0.824548
vt 1.562500 0.824548
vt 1.440620 0.675452
vt 0.125000 0.107731
vt 0.000000 0.249936
vt 0.125000 0.249936
vt 0.812593 0.058871
vt 1.500000 0.500000
vt 1.562500 0.500000
vt 0.374969 0.374993
vt 0.000000 1.000000
vt 0.250000 1.000000
vt 0.374969 0.062603
vt 0.125000 0.500000
vt 0.125000 1.000000
vt 0.374969 0.437596
vt 0.812593 0.375013
vt 0.812593 0.312642
vt 0.812593 0.000000
vt 0.250000 0.500000
vt 1.500000 1.000000
vt 0.812593 0.128242
vt 0.060940 0.618976
vt 0.000000 0.618976
vt 0.000000 0.881024
vt 0.060940 0.881024
vt 0.060940 0.937500
vt 1.318740 0.937500
vt 1.318740 0.562500
vt 0.060940 0.562500
vt 1.440620 0.618976
vt 1.318740 0.618976
vt 1.318740 0.881024
vt 1.440620 0.881024
vt 1.562500 0.675452
vt 1.602500 0.312366
vt 1.602500 0.055384
vt 1.540000 0.055384
vt 1.540000 0.000000
vt 0.250000 0.000000
vt 0.250000 0.055384
vt 0.125000 0.055384
vt 1.540000 0.312366
vt 0.125000 0.937500
vt 1.415000 0.937500
vt 1.415000 0.874866
vt 0.125000 0.312365
vt 0.250000 0.312365
vt 0.125000 0.874865
vt 0.000000 0.107731
vn 0.0000 0.0000 -1.0000
vn 0.0000 1.0000 0.0000
vn 0.0000 -0.0000 1.0000
vn 0.0000 -1.0000 -0.0000
vn 1.0000 0.0000 0.0000
vn -1.0000 0.0000 0.0000
usemtl Material.002
s 1
f 1/1/1 2/2/1 3/3/1
f 4/4/2 5/5/2 6/6/2
f 7/7/2 8/8/2 9/9/2
f 10/10/3 11/11/3 7/12/3
f 12/13/4 13/14/4 14/15/4
f 15/16/4 16/17/4 17/18/4
f 9/19/3 18/20/3 4/21/3
f 3/22/2 19/23/2 20/24/2
f 21/25/4 22/26/4 23/27/4
f 17/28/3 24/29/3 25/30/3
f 23/31/1 26/32/1 15/33/1
f 14/34/1 27/35/1 21/36/1
f 6/37/1 28/38/1 29/39/1
f 29/40/2 30/41/2 1/42/2
f 25/43/4 31/44/4 10/45/4
f 20/46/1 32/47/1 12/48/1
f 13/49/5 32/50/5 2/51/5
f 3/52/6 12/53/6 14/54/6
f 1/1/1 30/55/1 2/2/1
f 4/4/2 18/56/2 5/5/2
f 7/7/2 11/57/2 8/8/2
f 10/10/3 31/58/3 11/11/3
f 12/13/4 32/59/4 13/14/4
f 15/16/4 26/60/4 16/17/4
f 9/19/3 8/61/3 18/20/3
f 3/22/2 2/62/2 19/23/2
f 21/25/4 27/63/4 22/26/4
f 17/28/3 16/64/3 24/29/3
f 23/31/1 22/65/1 26/32/1
f 14/34/1 13/66/1 27/35/1
f 6/37/1 5/67/1 28/38/1
f 29/40/2 28/68/2 30/41/2
f 25/43/4 24/69/4 31/44/4
f 20/46/1 19/70/1 32/47/1
f 8/71/5 11/72/5 31/73/5
f 24/74/5 16/75/5 26/76/5
f 8/71/5 31/73/5 24/74/5
f 5/77/5 18/78/5 8/71/5
f 2/51/5 30/79/5 28/80/5
f 28/80/5 5/77/5 8/71/5
f 8/71/5 24/74/5 22/81/5
f 24/74/5 26/76/5 22/81/5
f 22/81/5 27/82/5 13/49/5
f 2/51/5 28/80/5 13/49/5
f 28/80/5 8/71/5 22/81/5
f 13/49/5 28/80/5 22/81/5
f 32/50/5 19/83/5 2/51/5
f 10/84/6 7/85/6 9/86/6
f 9/86/6 4/87/6 6/88/6
f 29/89/6 1/90/6 3/52/6
f 9/86/6 6/88/6 29/89/6
f 25/91/6 10/84/6 9/86/6
f 15/92/6 17/93/6 25/94/6
f 14/54/6 21/95/6 23/96/6
f 23/97/6 15/92/6 25/94/6
f 25/91/6 9/86/6 29/89/6
f 3/52/6 20/98/6 12/53/6
f 25/91/6 29/89/6 23/96/6
f 29/89/6 3/52/6 23/96/6
f 14/54/6 23/96/6 3/52/6
