# Blender v2.82 (sub 7) OBJ File: ''
# www.blender.org
mtllib simple1.mtl
o Cube.001_Cube.006
v 0.312500 -0.000000 1.687500
v 0.687500 -0.000000 1.750000
v 0.312500 -0.000000 1.750000
v 0.687500 0.500000 1.687500
v 0.312500 0.500000 1.312500
v 0.312500 0.500000 1.687500
v 0.687500 0.500000 1.312500
v 0.312500 0.500000 1.250000
v 0.687500 0.062500 1.250000
v 0.312500 0.437500 1.250000
v 0.687500 0.437500 1.250000
v 0.312500 -0.000000 1.312500
v 0.687500 -0.000000 1.250000
v 0.687500 -0.000000 1.312500
v 0.312500 0.062500 1.250000
v 0.750000 0.437500 1.750000
v 0.750000 0.062500 1.687500
v 0.750000 0.437500 1.687500
v 0.687500 0.062500 1.750000
v 0.750000 -0.000000 1.750000
v 0.750000 0.062500 1.750000
v 0.250000 0.437500 1.312500
v 0.250000 0.062500 1.687500
v 0.250000 0.437500 1.687500
v 0.250000 0.500000 1.687500
v 0.250000 0.437500 1.750000
v 0.250000 0.500000 1.750000
v 0.687500 0.500000 1.250000
v 0.312500 0.500000 1.750000
v 0.312500 0.437500 1.750000
v 0.687500 0.437500 1.750000
v 0.750000 -0.000000 1.687500
v 0.687500 -0.000000 1.687500
v 0.750000 0.500000 1.750000
v 0.687500 0.500000 1.750000
v 0.250000 0.062500 1.250000
v 0.250000 0.062500 1.312500
v 0.250000 0.500000 1.312500
v 0.250000 0.437500 1.250000
v 0.250000 -0.000000 1.312500
v 0.250000 -0.000000 1.687500
v 0.250000 -0.000000 1.750000
v 0.750000 0.062500 1.250000
v 0.750000 0.437500 1.250000
v 0.250000 0.500000 1.250000
v 0.750000 0.500000 1.250000
v 0.750000 -0.000000 1.250000
v 0.750000 0.500000 1.687500
v 0.250000 0.062500 1.750000
v 0.750000 0.062500 1.312500
v 0.750000 0.437500 1.312500
v 0.750000 0.500000 1.312500
v 0.312500 -0.000000 1.250000
v 0.312500 0.062500 1.750000
v 0.750000 -0.000000 1.312500
v 0.250000 -0.000000 1.250000
vt 0.312500 0.500000
vt 0.687500 0.500000
vt 0.687500 0.875000
vt 0.312500 0.875000
vt 0.437500 0.937500
vt 0.437500 1.000000
vt 0.062500 1.000000
vt 0.062500 0.937500
vt 0.687500 0.062500
vt 0.312500 0.062500
vt 0.312500 0.437500
vt 0.687500 0.437500
vt 0.062500 0.937500
vt 0.062500 1.000000
vt 0.437500 1.000000
vt 0.437500 0.937500
vt 0.937500 0.000000
vt 0.562500 0.000000
vt 0.562500 0.062500
vt 0.937500 0.062500
vt -0.000000 0.437500
vt 0.000000 0.062500
vt 0.062500 0.062500
vt 0.062500 0.437500
vt 0.937500 0.062500
vt 0.937500 0.000000
vt 1.000000 0.000000
vt 1.000000 0.062500
vt 0.687500 0.437500
vt 0.687500 0.062500
vt 0.312500 0.062500
vt 0.312500 0.437500
vt 0.437500 0.937500
vt 0.062500 0.937500
vt 0.562500 0.062500
vt 0.562500 0.000000
vt 0.062500 0.000000
vt 0.062500 0.062500
vt 0.000000 0.062500
vt 0.000000 0.000000
vt 0.312500 0.437500
vt 0.312500 0.062500
vt 0.687500 0.062500
vt 0.687500 0.437500
vt 0.937500 0.937500
vt 1.000000 0.937500
vt 1.000000 0.562500
vt 0.937500 0.562500
vt 1.000000 0.000000
vt 1.000000 0.062500
vt 0.937500 0.062500
vt 0.937500 0.000000
vt 0.687500 0.875000
vt 0.687500 0.500000
vt 0.312500 0.500000
vt 0.312500 0.875000
vt 0.937500 0.937500
vt 1.000000 0.937500
vt 1.000000 0.562500
vt 0.937500 0.562500
vt 0.937500 1.000000
vt 1.000000 1.000000
vt 0.062500 1.000000
vt -0.000000 1.000000
vt -0.000000 0.937500
vt 0.062500 0.937500
vt 0.000000 0.437500
vt 0.062500 0.437500
vt 0.062500 0.062500
vt 0.000000 0.062500
vt 0.062500 0.000000
vt 0.000000 0.000000
vt 1.000000 0.562500
vt 0.937500 0.562500
vt 0.937500 0.937500
vt 1.000000 0.937500
vt 0.000000 1.000000
vt 0.000000 0.937500
vt 0.937500 0.937500
vt 0.937500 0.562500
vt 1.000000 0.562500
vt 1.000000 0.937500
vt 0.937500 1.000000
vt 1.000000 1.000000
vt 0.062500 0.437500
vt 0.000000 0.437500
vt 1.000000 0.000000
vt 1.000000 0.062500
vt -0.000000 1.000000
vt -0.000000 0.937500
vt 0.062500 0.937500
vt 0.062500 1.000000
vt 0.062500 0.437500
vt 0.062500 0.062500
vt 0.000000 0.062500
vt -0.000000 0.437500
vt 0.312500 0.437500
vt 0.312500 0.062500
vt 0.687500 0.062500
vt 0.687500 0.437500
vt 0.437500 0.937500
vt 0.437500 1.000000
vt 0.437500 1.000000
vt 0.437500 0.937500
vt 0.062500 0.937500
vt 0.062500 1.000000
vt 0.000000 0.937500
vt 0.000000 1.000000
vt 1.000000 1.000000
vt 0.937500 1.000000
vt 0.062500 0.062500
vt 0.062500 0.437500
vt 0.562500 0.062500
vt 0.562500 0.000000
vt 0.437500 1.000000
vt 0.437500 0.937500
vt 0.937500 0.062500
vt 1.000000 0.062500
vt 0.062500 0.437500
vt 0.062500 0.062500
vt -0.000000 0.062500
vt -0.000000 0.437500
vt 0.937500 1.000000
vt 0.937500 0.937500
vt 0.062500 0.000000
vt 0.937500 0.562500
vt 0.562500 0.062500
vt 0.937500 0.062500
vt 0.937500 0.000000
vt 0.562500 0.000000
vt 0.000000 0.000000
vt 0.062500 0.000000
vt 0.562500 0.000000
vt 0.937500 0.000000
vt 0.937500 0.062500
vt 0.562500 0.062500
vt 1.000000 0.562500
vt 1.000000 0.937500
vt 0.937500 0.937500
vt 0.937500 0.562500
vt -0.000000 0.937500
vt 0.937500 1.000000
vt 1.000000 1.000000
vt 1.000000 0.062500
vt 1.000000 0.000000
vt 0.062500 0.000000
vt -0.000000 0.000000
vt 0.562500 0.062500
vn 0.0000 1.0000 0.0000
vn 0.0000 0.0000 -1.0000
vn 0.0000 -1.0000 -0.0000
vn 1.0000 0.0000 0.0000
vn 0.0000 0.0000 1.0000
vn -1.0000 0.0000 0.0000
usemtl Material
s 1
f 4/1/1 7/2/1 5/3/1 6/4/1
f 7/5/1 28/6/1 8/7/1 5/8/1
f 9/9/2 15/10/2 10/11/2 11/12/2
f 12/13/3 53/14/3 13/15/3 14/16/3
f 13/17/2 53/18/2 15/19/2 9/20/2
f 16/21/4 21/22/4 17/23/4 18/24/4
f 19/25/5 2/26/5 20/27/5 21/28/5
f 22/29/6 37/30/6 23/31/6 24/32/6
f 11/33/2 10/34/2 8/7/2 28/6/2
f 19/25/5 54/35/5 3/36/5 2/26/5
f 29/37/1 6/38/1 25/39/1 27/40/1
f 30/41/5 54/42/5 19/43/5 31/44/5
f 14/45/3 55/46/3 32/47/3 33/48/3
f 34/49/1 48/50/1 4/51/1 35/52/1
f 12/53/3 14/54/3 33/55/3 1/56/3
f 22/57/6 39/58/6 36/59/6 37/60/6
f 38/61/6 45/62/6 39/58/6 22/57/6
f 29/63/5 27/64/5 26/65/5 30/66/5
f 40/67/3 12/68/3 1/69/3 41/70/3
f 41/70/3 1/69/3 3/71/3 42/72/3
f 43/73/2 9/74/2 11/75/2 44/76/2
f 5/8/1 8/7/1 45/77/1 38/78/1
f 31/79/5 19/80/5 21/81/5 16/82/5
f 44/76/2 11/75/2 28/83/2 46/84/2
f 25/39/1 6/38/1 5/85/1 38/86/1
f 47/87/2 13/17/2 9/20/2 43/88/2
f 34/89/4 16/90/4 18/91/4 48/92/4
f 24/93/6 23/94/6 49/95/6 26/96/6
f 18/97/4 17/98/4 50/99/4 51/100/4
f 18/91/4 51/101/4 52/102/4 48/92/4
f 38/103/6 22/104/6 24/105/6 25/106/6
f 40/107/3 56/108/3 53/14/3 12/13/3
f 34/109/5 35/110/5 31/79/5 16/82/5
f 26/96/5 49/95/5 54/111/5 30/112/5
f 35/52/1 4/51/1 6/113/1 29/114/1
f 35/115/5 29/63/5 30/66/5 31/116/5
f 33/117/3 32/118/3 20/27/3 2/26/3
f 10/119/2 15/120/2 36/121/2 39/122/2
f 52/123/4 51/124/4 44/76/4 46/84/4
f 23/94/6 41/125/6 42/72/6 49/95/6
f 50/126/4 43/73/4 44/76/4 51/124/4
f 23/127/6 37/128/6 40/129/6 41/130/6
f 21/22/4 20/131/4 32/132/4 17/23/4
f 32/133/4 55/134/4 50/135/4 17/136/4
f 48/137/1 52/138/1 7/139/1 4/140/1
f 8/7/2 10/34/2 39/141/2 45/77/2
f 14/45/3 13/142/3 47/143/3 55/46/3
f 52/138/1 46/84/1 28/83/1 7/139/1
f 54/111/5 49/95/5 42/72/5 3/71/5
f 50/135/4 55/134/4 47/87/4 43/88/4
f 37/128/6 36/144/6 56/145/6 40/129/6
f 15/120/2 53/146/2 56/147/2 36/121/2
f 1/148/3 33/117/3 2/26/3 3/36/3
f 25/106/6 24/105/6 26/65/6 27/64/6
o Cube.001_Cube.001
v 0.312500 -0.000000 0.750000
v 0.312500 -0.000000 0.687500
v 0.687500 -0.000000 0.687500
v 0.687500 -0.000000 0.750000
v 0.312500 0.500000 0.312500
v 0.312500 0.500000 0.687500
v 0.312500 0.437500 0.687500
v 0.312500 0.437500 0.312500
v 0.687500 0.500000 0.312500
v 0.687500 0.500000 0.250000
v 0.312500 0.500000 0.250000
v 0.687500 0.062500 0.250000
v 0.312500 0.062500 0.250000
v 0.312500 0.062500 0.312500
v 0.687500 0.062500 0.312500
v 0.312500 -0.000000 0.312500
v 0.312500 -0.000000 0.250000
v 0.687500 -0.000000 0.250000
v 0.687500 -0.000000 0.312500
v 0.750000 0.437500 0.750000
v 0.750000 0.062500 0.750000
v 0.750000 0.062500 0.687500
v 0.750000 0.437500 0.687500
v 0.687500 0.062500 0.750000
v 0.750000 -0.000000 0.750000
v 0.250000 0.062500 0.687500
v 0.250000 0.437500 0.687500
v 0.312500 0.437500 0.687500
v 0.312500 0.062500 0.687500
v 0.250000 0.500000 0.750000
v 0.250000 0.500000 0.687500
v 0.250000 0.437500 0.750000
v 0.687500 0.437500 0.250000
v 0.312500 0.437500 0.250000
v 0.312500 0.062500 0.750000
v 0.312500 0.500000 0.750000
v 0.687500 0.062500 0.687500
v 0.312500 0.062500 0.687500
v 0.750000 -0.000000 0.312500
v 0.750000 -0.000000 0.687500
v 0.687500 0.500000 0.750000
v 0.750000 0.500000 0.750000
v 0.750000 0.500000 0.687500
v 0.687500 0.500000 0.687500
v 0.250000 0.437500 0.312500
v 0.250000 0.437500 0.250000
v 0.250000 0.062500 0.250000
v 0.250000 0.062500 0.312500
v 0.250000 0.500000 0.312500
v 0.250000 0.500000 0.250000
v 0.312500 0.437500 0.750000
v 0.250000 -0.000000 0.687500
v 0.250000 -0.000000 0.312500
v 0.250000 -0.000000 0.750000
v 0.750000 0.437500 0.250000
v 0.750000 0.062500 0.250000
v 0.687500 0.437500 0.750000
v 0.750000 0.500000 0.250000
v 0.750000 -0.000000 0.250000
v 0.250000 0.062500 0.750000
v 0.750000 0.062500 0.312500
v 0.750000 0.437500 0.312500
v 0.687500 0.437500 0.312500
v 0.687500 0.062500 0.312500
v 0.750000 0.500000 0.312500
v 0.250000 -0.000000 0.250000
v 0.687500 0.437500 0.312500
v 0.312500 0.437500 0.312500
v 0.687500 0.437500 0.687500
v 0.312500 0.437500 0.687500
v 0.312500 0.437500 0.312500
v 0.312500 0.062500 0.312500
v 0.687500 0.437500 0.687500
v 0.687500 0.062500 0.687500
v 0.687500 0.437500 0.687500
v 0.687500 0.437500 0.312500
vt -0.000000 -0.000000
vt -0.000000 0.062500
vt 0.375000 0.062500
vt 0.375000 -0.000000
vt 1.000000 1.000000
vt 0.625000 1.000000
vt 0.625000 0.937500
vt 1.000000 0.937500
vt 0.625000 0.937500
vt 1.000000 0.937500
vt 1.000000 1.000000
vt 0.625000 1.000000
vt 1.000000 1.000000
vt 0.625000 1.000000
vt 0.625000 0.937500
vt 1.000000 0.937500
vt 0.625000 0.937500
vt 0.625000 1.000000
vt 1.000000 1.000000
vt 1.000000 0.937500
vt 0.375000 0.062500
vt 0.375000 0.000000
vt -0.000000 0.000000
vt -0.000000 0.062500
vt -0.000000 1.000000
vt 0.000000 0.625000
vt 0.062500 0.625000
vt 0.062500 1.000000
vt 0.437500 0.062500
vt 0.375000 0.062500
vt 0.437500 0.000000
vt -0.000000 0.625000
vt -0.000000 1.000000
vt 0.062500 1.000000
vt 0.062500 0.625000
vt 0.562500 1.000000
vt 0.625000 1.000000
vt 0.625000 0.937500
vt 0.562500 0.937500
vt 1.000000 0.937500
vt 0.625000 0.937500
vt -0.000000 0.062500
vt 0.000000 0.562500
vt 0.062500 0.562500
vt 0.062500 0.625000
vt 0.000000 0.625000
vt -0.000000 -0.000000
vt 0.375000 -0.000000
vt 0.375000 0.062500
vt -0.000000 0.062500
vt 0.937500 -0.000000
vt 0.937500 0.375000
vt 1.000000 0.375000
vt 1.000000 -0.000000
vt 0.375000 -0.000000
vt 0.437500 -0.000000
vt 0.437500 0.062500
vt 0.375000 0.062500
vt 0.687500 -0.062500
vt 0.312500 -0.062500
vt 0.312500 0.312500
vt 0.687500 0.312500
vt 0.937500 0.375000
vt 1.000000 0.375000
vt 1.000000 0.000000
vt 0.937500 0.000000
vt 0.937500 0.437500
vt 1.000000 0.437500
vt 0.625000 1.000000
vt 0.625000 0.937500
vt 0.000000 0.625000
vt 0.000000 1.000000
vt 0.062500 1.000000
vt 0.062500 0.625000
vt 0.000000 0.562500
vt 0.062500 0.562500
vt 1.000000 0.375000
vt 1.000000 0.000000
vt 0.937500 0.000000
vt 0.937500 0.375000
vt 0.562500 0.937500
vt 0.562500 1.000000
vt 1.000000 0.375000
vt 0.937500 0.375000
vt 0.937500 0.000000
vt 1.000000 0.000000
vt 1.000000 0.437500
vt 0.937500 0.437500
vt 0.062500 1.000000
vt 0.000000 1.000000
vt 0.437500 0.062500
vt 0.437500 0.000000
vt 0.562500 1.000000
vt 0.562500 0.937500
vt 0.625000 0.937500
vt 0.625000 1.000000
vt -0.000000 1.000000
vt 0.062500 1.000000
vt 0.062500 0.625000
vt 0.000000 0.625000
vt 1.000000 0.000000
vt 1.000000 0.375000
vt 0.937500 0.375000
vt 0.937500 0.000000
vt 1.000000 0.937500
vt 1.000000 1.000000
vt 1.000000 1.000000
vt 1.000000 0.937500
vt 0.562500 0.937500
vt 0.562500 1.000000
vt 1.000000 0.437500
vt 0.937500 0.437500
vt 0.062500 1.000000
vt 0.062500 0.625000
vt -0.000000 -0.000000
vt -0.000000 0.062500
vt 1.000000 1.000000
vt 1.000000 0.937500
vt 0.437500 0.062500
vt 0.062500 1.000000
vt 0.062500 0.625000
vt -0.000000 0.625000
vt -0.000000 1.000000
vt 0.937500 0.437500
vt 0.937500 0.375000
vt 0.062500 0.562500
vt 0.937500 0.000000
vt -0.000000 0.062500
vt 0.375000 0.062500
vt 0.375000 0.000000
vt -0.000000 0.000000
vt 0.000000 0.562500
vt 0.062500 0.562500
vt -0.000000 0.062500
vt -0.000000 0.000000
vt 0.375000 0.000000
vt 0.375000 0.062500
vt 0.937500 -0.000000
vt 1.000000 -0.000000
vt 1.000000 0.375000
vt 0.937500 0.375000
vt 0.562500 0.937500
vt 0.937500 0.437500
vt 1.000000 0.437500
vt 0.437500 0.062500
vt 0.437500 0.000000
vt 0.062500 0.562500
vt -0.000000 0.562500
vt 0.312500 0.312500
vt 0.687500 0.312500
vt 0.687500 -0.062500
vt 0.312500 -0.062500
vt 1.000000 0.375000
vt 1.000000 0.000000
vt 0.937500 0.000000
vt 0.937500 0.375000
vt 0.625000 1.000000
vt 1.000000 1.000000
vt 1.000000 0.937500
vt 0.625000 0.937500
vt 1.000000 0.000000
vt 1.000000 0.375000
vt 0.937500 0.375000
vt 0.937500 0.000000
vt 0.312500 0.312500
vt 0.312500 -0.062500
vt 0.687500 -0.062500
vt 0.687500 0.312500
vt 0.000000 0.625000
vt -0.000000 1.000000
vt 0.062500 1.000000
vt 0.062500 0.625000
vt 0.375000 -0.000000
vt -0.000000 -0.000000
vt -0.000000 0.062500
vt 0.375000 0.062500
vt -0.000000 1.000000
vt 0.000000 0.625000
vt 0.062500 0.625000
vt 0.062500 1.000000
vt 0.312500 0.875000
vt 0.687500 0.875000
vt 0.687500 0.500000
vt 0.312500 0.500000
vt 0.000000 1.000000
vt 0.062500 1.000000
vt -0.000000 1.000000
vt -0.000000 0.625000
vt 0.062500 0.625000
vt 0.062500 1.000000
vt 0.000000 0.625000
vt 0.062500 0.625000
vt 0.312500 0.875000
vt 0.312500 0.500000
vt 0.687500 0.500000
vt 0.687500 0.875000
vt 1.000000 -0.000000
vt 1.000000 0.375000
vt 0.937500 0.375000
vt 0.937500 -0.000000
vt 1.000000 -0.000000
vt 0.937500 -0.000000
vt 1.000000 0.375000
vt 0.937500 0.375000
vt 0.687500 -0.062500
vt 0.687500 0.312500
vt 0.312500 0.312500
vt 0.312500 -0.062500
vt 1.000000 1.000000
vt 0.625000 1.000000
vt 0.625000 0.937500
vt 1.000000 0.937500
vt 0.625000 1.000000
vt 0.625000 0.937500
vt 1.000000 1.000000
vt 1.000000 0.937500
vn 0.0000 -1.0000 0.0000
vn 1.0000 0.0000 0.0000
vn 0.0000 1.0000 0.0000
vn 0.0000 0.0000 -1.0000
vn 0.0000 -0.0000 1.0000
vn -1.0000 0.0000 0.0000
usemtl Material
s 1
f 57/149/7 58/150/7 59/151/7 60/152/7
f 61/153/8 62/154/8 63/155/8 64/156/8
f 61/157/9 65/158/9 66/159/9 67/160/9
f 68/161/9 69/162/9 70/163/9 71/164/9
f 72/165/7 73/166/7 74/167/7 75/168/7
f 68/169/10 74/170/10 73/171/10 69/172/10
f 76/173/8 77/174/8 78/175/8 79/176/8
f 77/177/11 80/178/11 60/152/11 81/179/11
f 82/180/10 83/181/10 84/182/10 85/183/10
f 86/184/12 87/185/12 83/186/12 88/187/12
f 66/159/10 89/188/10 90/189/10 67/160/10
f 80/178/11 91/190/11 57/149/11 60/152/11
f 86/191/9 92/192/9 62/193/9 87/194/9
f 91/195/9 80/196/9 93/197/9 94/198/9
f 59/199/7 75/200/7 95/201/7 96/202/7
f 97/203/9 98/204/9 99/205/9 100/206/9
f 58/207/7 72/208/7 75/209/7 59/210/7
f 101/211/12 102/212/12 103/213/12 104/214/12
f 105/215/12 106/216/12 102/212/12 101/211/12
f 92/217/11 86/184/11 88/187/11 107/218/11
f 108/219/7 109/220/7 72/221/7 58/222/7
f 110/223/7 108/219/7 58/222/7 57/224/7
f 111/225/10 112/226/10 68/227/10 89/228/10
f 105/229/9 61/157/9 67/160/9 106/230/9
f 76/231/11 113/232/11 80/233/11 77/234/11
f 114/235/10 111/225/10 89/228/10 66/236/10
f 87/194/9 62/193/9 61/237/9 105/238/9
f 112/239/10 115/240/10 74/170/10 68/169/10
f 98/241/8 76/242/8 79/243/8 99/244/8
f 88/245/12 83/246/12 82/247/12 116/248/12
f 117/249/11 118/250/11 119/251/11 120/252/11
f 99/244/8 79/243/8 118/253/8 121/254/8
f 87/185/12 105/255/12 101/256/12 83/186/12
f 109/257/7 122/258/7 73/166/7 72/165/7
f 98/259/11 97/260/11 113/232/11 76/231/11
f 107/261/11 88/245/11 116/248/11 91/262/11
f 92/263/9 97/203/9 100/206/9 62/264/9
f 97/265/11 92/217/11 107/218/11 113/266/11
f 60/152/7 59/151/7 96/267/7 81/179/7
f 90/268/10 69/269/10 103/270/10 102/271/10
f 121/272/8 118/273/8 111/225/8 114/235/8
f 116/248/12 82/247/12 108/274/12 110/223/12
f 118/273/8 117/275/8 112/226/8 111/225/8
f 82/276/12 104/277/12 109/278/12 108/279/12
f 77/174/8 81/280/8 96/281/8 78/175/8
f 78/282/8 96/283/8 95/284/8 117/285/8
f 100/286/9 99/287/9 121/288/9 65/289/9
f 67/160/10 90/189/10 102/290/10 106/230/10
f 75/200/7 74/291/7 115/292/7 95/201/7
f 65/289/9 121/288/9 114/235/9 66/236/9
f 91/262/11 116/248/11 110/223/11 57/224/11
f 117/285/8 95/284/8 115/240/8 112/239/8
f 104/277/12 103/293/12 122/294/12 109/278/12
f 69/269/10 73/295/10 122/296/10 103/270/10
f 123/297/10 71/298/10 70/299/10 124/300/10
f 89/301/12 68/302/12 71/303/12 123/304/12
f 90/305/7 89/306/7 123/307/7 124/308/7
f 69/309/8 90/310/8 124/311/8 70/312/8
f 125/313/11 126/314/11 94/315/11 93/316/11
f 80/317/12 113/318/12 125/319/12 93/320/12
f 113/321/7 107/322/7 126/323/7 125/324/7
f 107/325/8 91/326/8 94/327/8 126/328/8
f 84/329/12 127/330/12 128/331/12 85/332/12
f 104/333/9 82/180/9 85/183/9 128/334/9
f 101/335/11 104/336/11 128/337/11 127/338/11
f 83/339/7 101/335/7 127/338/7 84/340/7
f 129/341/8 130/342/8 120/343/8 119/344/8
f 78/345/9 117/346/9 120/347/9 130/348/9
f 118/250/7 79/349/7 129/350/7 119/251/7
f 79/351/10 78/345/10 130/348/10 129/352/10
f 63/353/9 131/354/9 132/355/9 64/356/9
f 65/357/11 61/358/11 64/359/11 132/360/11
f 100/361/12 65/357/12 132/360/12 131/362/12
f 62/154/10 100/363/10 131/364/10 63/155/10
