# Blender v2.82 (sub 7) OBJ File: ''
# www.blender.org
mtllib wsnorm.mtl
o Cube.001_Cube.006
v 0.300000 0.500000 0.750000
v 0.700000 0.500000 0.750000
v 0.700000 0.000000 0.750000
v 0.300000 -0.000000 0.750000
v 0.700000 0.500000 0.250000
v 0.300000 0.500000 0.250000
v 0.300000 0.000000 0.250000
v 0.700000 0.000000 0.250000
v 0.700000 0.450000 0.750000
v 0.300000 0.450000 0.750000
v 0.300000 0.050000 0.250000
v 0.700000 0.050000 0.250000
v 0.700000 0.000000 0.300000
v 0.300000 -0.000000 0.300000
v 0.300000 0.500000 0.700000
v 0.700000 0.500000 0.700000
v 0.700000 0.050000 0.750000
v 0.300000 0.050000 0.750000
v 0.700000 0.000000 0.700000
v 0.300000 0.000000 0.700000
v 0.300000 0.500000 0.300000
v 0.700000 0.500000 0.300000
v 0.300000 0.450000 0.250000
v 0.700000 0.450000 0.250000
v 0.750000 0.050000 0.750000
v 0.750000 0.450000 0.750000
v 0.750000 0.050000 0.250000
v 0.750000 0.450000 0.250000
v 0.250000 0.050000 0.250000
v 0.250000 0.450000 0.250000
v 0.250000 0.450000 0.750000
v 0.250000 0.050000 0.750000
v 0.250000 0.050000 0.700000
v 0.250000 0.450000 0.700000
v 0.750000 0.450000 0.700000
v 0.750000 0.050000 0.700000
v 0.250000 0.050000 0.300000
v 0.250000 0.450000 0.300000
v 0.750000 0.450000 0.300000
v 0.750000 0.050000 0.300000
v 0.750000 0.500000 0.700000
v 0.750000 0.500000 0.300000
v 0.750000 0.000000 0.300000
v 0.750000 0.000000 0.700000
v 0.250000 0.500000 0.300000
v 0.250000 0.500000 0.700000
v 0.250000 0.000000 0.700000
v 0.250000 0.000000 0.300000
v 0.250000 0.000000 0.750000
v 0.250000 0.500000 0.750000
v 0.250000 0.000000 0.250000
v 0.250000 0.500000 0.250000
v 0.750000 0.000000 0.750000
v 0.750000 0.500000 0.750000
v 0.750000 0.000000 0.250000
v 0.750000 0.500000 0.250000
vt 0.062500 0.437500
vt 0.000000 0.937500
vt 0.000000 0.437500
vt 0.375000 0.250000
vt 0.625000 0.500000
vt 0.375000 0.500000
vt 0.062500 0.437500
vt -0.000000 0.937500
vt 0.062500 0.937500
vt 0.187500 0.125000
vt 0.250000 0.187500
vt 0.187500 0.187500
vt 0.062500 0.937500
vt 0.000000 0.437500
vt 0.062500 0.437500
vt 0.062500 0.937500
vt 0.062500 0.437500
vt 0.062500 1.000000
vt 0.562500 0.937500
vt 0.062500 0.937500
vt 0.062500 0.437500
vt 0.000000 0.375000
vt 0.062500 0.375000
vt 0.250000 0.125000
vt 0.187500 0.187500
vt 0.187500 0.125000
vt 0.000000 0.937500
vt 0.062500 1.000000
vt 0.000000 1.000000
vt 0.062500 0.937500
vt 0.000000 0.437500
vt 0.000000 0.937500
vt -0.000000 0.937500
vt 0.000000 0.437500
vt 0.625000 0.937500
vt 0.562500 1.000000
vt 0.625000 1.000000
vt 0.187500 0.187500
vt 0.250000 0.125000
vt 0.250000 0.187500
vt 0.562500 0.937500
vt 0.062500 1.000000
vt 0.062500 0.937500
vt 0.000000 1.000000
vt 0.062500 0.937500
vt 0.000000 0.937500
vt 0.625000 0.250000
vt 0.375000 0.500000
vt 0.375000 0.250000
vt 0.562500 0.937500
vt 0.062500 1.000000
vt 0.062500 0.937500
vt 0.625000 0.937500
vt 0.562500 1.000000
vt 0.562500 1.000000
vt 0.562500 0.937500
vt 0.062500 1.000000
vt 0.562500 0.937500
vt 0.562500 1.000000
vt 0.625000 0.937500
vt 0.625000 1.000000
vt 0.562500 1.000000
vt 0.062500 1.000000
vt 0.000000 1.000000
vt 0.062500 1.000000
vt 0.062500 0.937500
vt 0.562500 1.000000
vt 0.000000 1.000000
vt 0.000000 0.375000
vt 0.062500 0.375000
vt 0.000000 0.937500
vt 0.062500 0.937500
vt 0.562500 1.000000
vt 0.187500 0.187500
vt 0.250000 0.125000
vt 0.250000 0.187500
vt 0.000000 0.437500
vt 0.000000 0.437500
vt -0.000000 0.937500
vt 0.062500 0.937500
vt 0.062500 0.437500
vt 0.000000 0.437500
vt 0.062500 0.437500
vt 0.000000 1.000000
vt 0.562500 0.937500
vt 0.625000 0.937500
vt 0.562500 1.000000
vt 0.625000 1.000000
vt 0.062500 0.437500
vt 0.000000 0.375000
vt 0.062500 0.375000
vt 0.062500 0.937500
vt 0.562500 0.937500
vt -0.000000 0.937500
vt 0.000000 0.437500
vt 0.000000 0.437500
vt 0.062500 0.437500
vt 0.062500 1.000000
vt 0.562500 0.937500
vt 0.625000 0.937500
vt 0.625000 1.000000
vt 0.062500 0.375000
vt 0.062500 0.375000
vt 0.000000 0.437500
vt 0.000000 1.000000
vt 0.000000 1.000000
vt 0.062500 1.000000
vt 0.000000 1.000000
vt 0.625000 0.250000
vt 0.250000 0.125000
vt 0.250000 0.187500
vt 0.062500 0.437500
vt 0.562500 0.937500
vt 0.187500 0.125000
vt 0.562500 1.000000
vt 0.625000 0.500000
vt 0.562500 0.937500
vt 0.562500 0.937500
vt 0.562500 0.937500
vt 0.187500 0.125000
vt 0.062500 0.437500
vt 0.062500 0.437500
vt 0.062500 1.000000
vt -0.000000 0.937500
vt 0.562500 1.000000
vt 0.000000 0.375000
vn 0.0000 -1.0000 -0.0000
vn 0.0000 1.0000 -0.0000
vn -0.0000 0.0000 -1.0000
vn 1.0000 0.0000 0.0000
vn 0.0000 0.0000 1.0000
vn -1.0000 0.0000 0.0000
usemtl Material
s off
f 20/1/1 3/2/1 4/3/1
f 16/4/2 21/5/2 15/6/2
f 22/7/2 6/8/2 21/9/2
f 12/10/3 23/11/3 24/12/3
f 14/13/1 8/14/1 13/15/1
f 8/14/3 11/16/3 12/17/3
f 26/18/4 36/19/4 35/20/4
f 17/21/5 53/22/5 25/23/5
f 38/24/6 33/25/6 34/26/6
f 46/27/6 31/28/6 50/29/6
f 24/30/3 6/31/3 5/32/3
f 17/21/5 4/33/5 3/34/5
f 1/35/2 46/36/2 50/37/2
f 10/38/5 17/39/5 9/40/5
f 13/41/1 44/42/1 19/43/1
f 54/44/2 16/45/2 2/46/2
f 14/47/1 19/48/1 20/49/1
f 38/50/6 29/51/6 37/52/6
f 45/53/6 30/54/6 38/50/6
f 1/35/5 31/55/5 10/56/5
f 48/57/1 20/58/1 47/59/1
f 47/59/1 4/60/1 49/61/1
f 27/62/3 24/30/3 28/63/3
f 21/9/2 52/64/2 45/65/2
f 9/66/5 25/67/5 26/18/5
f 28/63/3 5/32/3 56/68/3
f 46/36/2 21/9/2 45/65/2
f 55/69/3 12/17/3 27/70/3
f 54/44/4 35/20/4 41/71/4
f 34/72/6 32/73/6 31/28/6
f 35/74/4 40/75/4 39/76/4
f 35/20/4 42/77/4 41/71/4
f 45/78/6 34/72/6 46/27/6
f 48/57/1 7/79/1 14/13/1
f 54/44/5 9/66/5 26/18/5
f 31/55/5 18/80/5 10/56/5
f 2/46/2 15/81/2 1/82/2
f 2/46/5 10/83/5 9/66/5
f 19/43/1 53/84/1 3/2/1
f 23/85/3 29/51/3 30/54/3
f 42/86/4 28/87/4 56/88/4
f 33/89/6 49/90/6 32/91/6
f 40/92/4 28/87/4 39/93/4
f 33/89/6 48/94/6 47/95/6
f 25/23/4 44/96/4 36/97/4
f 44/96/4 40/92/4 36/97/4
f 41/98/2 22/99/2 16/45/2
f 6/100/3 30/54/3 52/101/3
f 13/15/1 55/69/1 43/102/1
f 42/103/2 5/104/2 22/7/2
f 18/80/5 49/105/5 4/33/5
f 40/92/4 55/106/4 27/107/4
f 37/52/6 51/108/6 48/94/6
f 11/16/3 51/108/3 29/51/3
f 20/1/1 19/43/1 3/2/1
f 16/4/2 22/109/2 21/5/2
f 22/7/2 5/104/2 6/8/2
f 12/10/3 11/110/3 23/11/3
f 14/13/1 7/79/1 8/14/1
f 8/14/3 7/79/3 11/16/3
f 26/18/4 25/67/4 36/19/4
f 17/21/5 3/34/5 53/22/5
f 38/24/6 37/111/6 33/25/6
f 46/27/6 34/72/6 31/28/6
f 24/30/3 23/112/3 6/31/3
f 17/21/5 18/80/5 4/33/5
f 1/35/2 15/113/2 46/36/2
f 10/38/5 18/114/5 17/39/5
f 13/41/1 43/115/1 44/42/1
f 54/44/2 41/98/2 16/45/2
f 14/47/1 13/116/1 19/48/1
f 38/50/6 30/54/6 29/51/6
f 45/53/6 52/101/6 30/54/6
f 1/35/5 50/37/5 31/55/5
f 48/57/1 14/13/1 20/58/1
f 47/59/1 20/58/1 4/60/1
f 27/62/3 12/117/3 24/30/3
f 21/9/2 6/8/2 52/64/2
f 9/66/5 17/118/5 25/67/5
f 28/63/3 24/30/3 5/32/3
f 46/36/2 15/113/2 21/9/2
f 55/69/3 8/14/3 12/17/3
f 54/44/4 26/18/4 35/20/4
f 34/72/6 33/119/6 32/73/6
f 35/74/4 36/120/4 40/75/4
f 35/20/4 39/121/4 42/77/4
f 45/78/6 38/122/6 34/72/6
f 48/57/1 51/108/1 7/79/1
f 54/44/5 2/46/5 9/66/5
f 31/55/5 32/123/5 18/80/5
f 2/46/2 16/45/2 15/81/2
f 2/46/5 1/82/5 10/83/5
f 19/43/1 44/42/1 53/84/1
f 23/85/3 11/16/3 29/51/3
f 42/86/4 39/93/4 28/87/4
f 33/89/6 47/95/6 49/90/6
f 40/92/4 27/107/4 28/87/4
f 33/89/6 37/52/6 48/94/6
f 25/23/4 53/22/4 44/96/4
f 44/96/4 43/124/4 40/92/4
f 41/98/2 42/125/2 22/99/2
f 6/100/3 23/85/3 30/54/3
f 13/15/1 8/14/1 55/69/1
f 42/103/2 56/126/2 5/104/2
f 18/80/5 32/123/5 49/105/5
f 40/92/4 43/124/4 55/106/4
f 37/52/6 29/51/6 51/108/6
f 11/16/3 7/79/3 51/108/3
