# Blender v2.82 (sub 7) OBJ File: ''
# www.blender.org
mtllib simple2.mtl
o Cube
v 0.312500 0.688750 0.377500
v 0.312500 0.750000 0.377500
v 0.312500 0.750000 0.312500
v 0.312500 0.688750 0.312500
v 0.626250 0.688750 0.312500
v 0.626250 0.750000 0.312500
v 0.687500 0.750000 0.312500
v 0.687500 0.688750 0.312500
v 0.687500 0.688750 0.626250
v 0.687500 0.750000 0.626250
v 0.687500 0.750000 0.687500
v 0.687500 0.688750 0.687500
v 0.373700 0.688750 0.687500
v 0.373700 0.750000 0.687500
v 0.312500 0.750000 0.687500
v 0.312500 0.688750 0.687500
v 0.373700 0.750000 0.626250
v 0.312500 0.750000 0.626250
v 0.373700 0.750000 0.312500
v 0.373700 0.750000 0.377500
v 0.687500 0.750000 0.377500
v 0.687500 0.688750 0.377500
v 0.312500 0.688750 0.626250
v 0.626250 0.750000 0.377500
v 0.626250 0.750000 0.626250
v 0.626250 0.750000 0.687500
v 0.626250 0.688750 0.687500
v 0.373700 0.688750 0.312500
v 0.312500 -0.000000 0.312500
v 0.312500 -0.000000 0.687500
v 0.687500 -0.000000 0.687500
v 0.687500 -0.000000 0.312500
v 0.626250 -0.000000 0.687500
v 0.373700 -0.000000 0.687500
v 0.373700 -0.000000 0.312500
v 0.626250 -0.000000 0.312500
v 0.687500 -0.000000 0.377500
v 0.687500 -0.000000 0.626250
v 0.312500 -0.000000 0.626250
v 0.312500 -0.000000 0.377500
vt 0.062500 0.062500
vt 0.062500 0.000000
vt 0.000000 0.000000
vt 0.000000 0.062500
vt 0.937500 0.937500
vt 0.937500 1.000000
vt 1.000000 1.000000
vt 1.000000 0.937500
vt 0.937500 0.062500
vt 0.937500 0.000000
vt 1.000000 0.000000
vt 1.000000 0.062500
vt 0.062500 0.875000
vt 0.062500 0.937500
vt 0.000000 0.937500
vt 0.000000 0.875000
vt 0.750000 0.062500
vt 0.687500 0.062500
vt 0.687500 0.000000
vt 0.750000 0.000000
vt 0.062500 1.000000
vt 0.000000 1.000000
vt 0.000000 0.937500
vt 0.062500 0.937500
vt 0.000000 0.062500
vt 0.000000 0.000000
vt 0.062500 0.000000
vt 0.062500 0.062500
vt 0.937500 0.062500
vt 0.937500 0.000000
vt 0.687500 0.000000
vt 0.687500 0.062500
vt 1.000000 0.062500
vt 1.000000 0.000000
vt 1.000000 1.000000
vt 0.937500 1.000000
vt 0.937500 0.750000
vt 1.000000 0.750000
vt 0.687500 0.062500
vt 0.687500 0.000000
vt 0.062500 0.312500
vt 0.000000 0.312500
vt 0.000000 0.062500
vt 0.062500 0.062500
vt 0.687500 1.000000
vt 0.625000 1.000000
vt 0.625000 0.937500
vt 0.687500 0.937500
vt 0.000000 0.000000
vt 0.062500 0.000000
vt 1.000000 0.937500
vt 1.000000 1.000000
vt 0.937500 1.000000
vt 0.937500 0.937500
vt 0.687500 0.937500
vt 0.687500 1.000000
vt 0.000000 0.875000
vt 0.000000 0.937500
vt 0.062500 0.937500
vt 0.062500 0.875000
vt 0.312500 0.875000
vt 0.312500 0.500000
vt 0.687500 0.500000
vt 0.687500 0.875000
vt 0.625000 0.500000
vt 0.375000 0.500000
vt 0.375000 0.250000
vt 0.625000 0.250000
vt 0.312500 1.000000
vt 0.312500 0.937500
vt 1.000000 0.062500
vt 1.000000 0.000000
vt 0.687500 1.000000
vt 0.687500 0.937500
vt 0.625000 0.062500
vt 0.625000 0.750000
vt 0.375000 0.750000
vt 0.375000 0.062500
vt 0.000000 0.187500
vt 0.062500 0.187500
vt 0.375000 0.062500
vt 0.375000 0.750000
vt 0.625000 0.750000
vt 0.625000 0.062500
vt 1.000000 0.250000
vt 0.937500 0.250000
vt 0.625000 0.062500
vt 0.625000 0.750000
vt 0.375000 0.750000
vt 0.375000 0.062500
vt 1.000000 0.750000
vt 0.937500 0.750000
vt 0.375000 0.062500
vt 0.375000 0.750000
vt 0.625000 0.750000
vt 0.625000 0.062500
vt 0.000000 0.750000
vt 0.062500 0.750000
vt 0.062500 0.187500
vt 0.000000 0.187500
vt 0.937500 0.750000
vt 1.000000 0.750000
vt 0.937500 0.250000
vt 1.000000 0.250000
vt 0.062500 0.750000
vt 0.000000 0.750000
vn -1.0000 0.0000 0.0000
vn 0.0000 0.0000 -1.0000
vn 1.0000 -0.0000 0.0000
vn 0.0000 -0.0000 1.0000
vn 0.0000 1.0000 0.0000
usemtl Material.001
s 1
f 1/1/1 2/2/1 3/3/1 4/4/1
f 5/5/2 6/6/2 7/7/2 8/8/2
f 9/9/3 10/10/3 11/11/3 12/12/3
f 13/13/4 14/14/4 15/15/4 16/16/4
f 17/17/5 18/18/5 15/19/5 14/20/5
f 19/21/5 3/22/5 2/23/5 20/24/5
f 8/25/3 7/26/3 21/27/3 22/28/3
f 23/29/1 18/30/1 2/31/1 1/32/1
f 16/33/1 15/34/1 18/30/1 23/29/1
f 20/35/5 2/36/5 18/37/5 17/38/5
f 22/39/3 21/40/3 10/10/3 9/9/3
f 21/41/5 24/42/5 25/43/5 10/44/5
f 7/45/5 6/46/5 24/47/5 21/48/5
f 10/44/5 25/43/5 26/49/5 11/50/5
f 12/51/4 11/52/4 26/53/4 27/54/4
f 28/55/2 19/56/2 6/6/2 5/5/2
f 4/57/2 3/58/2 19/59/2 28/60/2
f 29/61/5 30/62/5 31/63/5 32/64/5
f 24/65/5 20/66/5 17/67/5 25/68/5
f 6/69/5 19/21/5 20/24/5 24/70/5
f 25/71/5 17/17/5 14/20/5 26/72/5
f 27/54/4 26/53/4 14/73/4 13/74/4
f 33/75/4 27/76/4 13/77/4 34/78/4
f 29/79/2 4/57/2 28/60/2 35/80/2
f 35/81/2 28/82/2 5/83/2 36/84/2
f 31/85/4 12/51/4 27/54/4 33/86/4
f 37/87/3 22/88/3 9/89/3 38/90/3
f 30/91/1 16/33/1 23/29/1 39/92/1
f 39/93/1 23/94/1 1/95/1 40/96/1
f 32/97/3 8/25/3 22/28/3 37/98/3
f 34/99/4 13/13/4 16/16/4 30/100/4
f 38/101/3 9/9/3 12/12/3 31/102/3
f 36/103/2 5/5/2 8/8/2 32/104/2
f 40/105/1 1/1/1 4/4/1 29/106/1
