# Blender v2.91.2 OBJ File: ''
# www.blender.org
mtllib waystone_model.mtl
o Cube.001_Cube.001
v 0.687500 0.500000 0.312500
v 0.312500 0.500000 0.687500
v 0.687500 0.500000 0.687500
v 0.687500 0.500000 0.250000
v 0.312500 0.500000 0.312500
v 0.312500 0.062500 0.250000
v 0.687500 0.437500 0.250000
v 0.687500 0.062500 0.250000
v 0.312500 -0.000000 0.250000
v 0.687500 -0.000000 0.312500
v 0.312500 -0.000000 0.312500
v 0.687500 -0.000000 0.250000
v 0.750000 0.062500 0.750000
v 0.750000 0.437500 0.687500
v 0.750000 0.437500 0.750000
v 0.687500 -0.000000 0.750000
v 0.687500 0.062500 0.750000
v 0.250000 0.062500 0.312500
v 0.250000 0.437500 0.687500
v 0.250000 0.437500 0.312500
v 0.312500 0.437500 0.250000
v 0.312500 0.062500 0.750000
v 0.250000 0.500000 0.750000
v 0.312500 0.500000 0.750000
v 0.687500 0.437500 0.750000
v 0.312500 0.437500 0.750000
v 0.750000 -0.000000 0.312500
v 0.687500 -0.000000 0.687500
v 0.750000 0.500000 0.687500
v 0.687500 0.500000 0.750000
v 0.750000 0.500000 0.750000
v 0.312500 -0.000000 0.687500
v 0.250000 0.437500 0.250000
v 0.250000 0.500000 0.250000
v 0.250000 0.500000 0.312500
v 0.250000 -0.000000 0.687500
v 0.250000 -0.000000 0.312500
v 0.250000 -0.000000 0.750000
v 0.750000 0.437500 0.250000
v 0.750000 0.062500 0.250000
v 0.312500 0.500000 0.250000
v 0.750000 0.500000 0.250000
v 0.250000 0.500000 0.687500
v 0.750000 -0.000000 0.250000
v 0.250000 0.062500 0.687500
v 0.250000 0.437500 0.750000
v 0.750000 0.062500 0.687500
v 0.750000 0.437500 0.312500
v 0.250000 -0.000000 0.250000
v 0.250000 0.062500 0.750000
v 0.750000 -0.000000 0.687500
v 0.750000 0.500000 0.312500
v 0.750000 0.062500 0.312500
v 0.750000 -0.000000 0.750000
v 0.312500 -0.000000 0.750000
v 0.250000 0.062500 0.250000
vt 0.687500 0.500000
vt 0.312500 0.875000
vt 0.312500 0.500000
vt 0.437500 1.000000
vt 0.062500 0.937500
vt 0.437500 0.937500
vt 0.312500 0.062500
vt 0.687500 0.437500
vt 0.687500 0.062500
vt 0.062500 1.000000
vt 0.437500 0.937500
vt 0.062500 0.937500
vt 0.562500 0.000000
vt 0.937500 0.062500
vt 0.937500 0.000000
vt 0.000000 0.062500
vt 0.062500 0.437500
vt -0.000000 0.437500
vt 0.937500 0.000000
vt 1.000000 0.062500
vt 0.937500 0.062500
vt 0.687500 0.062500
vt 0.312500 0.437500
vt 0.687500 0.437500
vt 0.062500 0.937500
vt 0.437500 0.937500
vt 0.562500 0.062500
vt 0.062500 0.062500
vt 0.000000 0.000000
vt 0.062500 0.000000
vt 0.312500 0.062500
vt 0.687500 0.437500
vt 0.312500 0.437500
vt 1.000000 0.937500
vt 0.937500 0.562500
vt 0.937500 0.937500
vt 1.000000 0.062500
vt 0.937500 0.000000
vt 1.000000 0.000000
vt 0.687500 0.500000
vt 0.312500 0.875000
vt 0.687500 0.875000
vt 1.000000 0.937500
vt 0.937500 0.562500
vt 0.937500 0.937500
vt 1.000000 1.000000
vt 0.937500 1.000000
vt -0.000000 1.000000
vt 0.062500 0.937500
vt 0.062500 1.000000
vt 0.062500 0.437500
vt 0.000000 0.062500
vt 0.000000 0.437500
vt 0.062500 0.062500
vt 0.000000 0.000000
vt 0.937500 0.562500
vt 1.000000 0.937500
vt 1.000000 0.562500
vt 0.062500 1.000000
vt 0.000000 0.937500
vt 0.937500 0.562500
vt 1.000000 0.937500
vt 0.937500 0.937500
vt 0.937500 0.937500
vt 1.000000 1.000000
vt 0.000000 0.437500
vt 0.000000 0.062500
vt 1.000000 0.062500
vt 1.000000 0.000000
vt -0.000000 0.937500
vt 0.062500 1.000000
vt -0.000000 1.000000
vt 0.062500 0.062500
vt -0.000000 0.437500
vt 0.062500 0.437500
vt 0.312500 0.062500
vt 0.687500 0.437500
vt 0.312500 0.437500
vt 0.437500 0.937500
vt 0.062500 0.937500
vt 0.437500 0.937500
vt 0.062500 1.000000
vt 0.437500 1.000000
vt 0.000000 1.000000
vt 0.000000 0.937500
vt 0.937500 1.000000
vt 1.000000 1.000000
vt 0.000000 0.062500
vt 0.062500 0.437500
vt 0.937500 0.062500
vt 0.562500 0.000000
vt 0.437500 0.937500
vt 0.437500 1.000000
vt 1.000000 0.062500
vt 0.937500 0.062500
vt 0.062500 0.062500
vt -0.000000 0.437500
vt 0.062500 0.437500
vt 0.937500 0.937500
vt 0.937500 1.000000
vt 0.062500 0.000000
vt 0.937500 0.562500
vt 0.937500 0.062500
vt 0.562500 0.000000
vt 0.562500 0.062500
vt 0.000000 0.000000
vt 0.062500 0.062500
vt 0.937500 0.000000
vt 0.562500 0.062500
vt 0.562500 0.000000
vt 1.000000 0.937500
vt 0.937500 0.562500
vt 1.000000 0.562500
vt 0.000000 1.000000
vt 0.937500 1.000000
vt 0.937500 0.937500
vt 0.062500 0.000000
vt 0.062500 0.062500
vt 0.937500 0.062500
vt 1.000000 0.062500
vt 0.937500 0.000000
vt 0.062500 0.000000
vt -0.000000 0.062500
vt 0.562500 0.000000
vt 0.562500 0.062500
vt 0.062500 0.937500
vt 0.687500 0.875000
vt 0.312500 0.437500
vt 0.437500 1.000000
vt 0.562500 0.062500
vt 1.000000 0.000000
vt 0.312500 0.062500
vt 0.687500 0.062500
vt 1.000000 0.562500
vt 0.312500 0.500000
vt 1.000000 0.562500
vt -0.000000 0.937500
vt 1.000000 0.562500
vt 0.937500 1.000000
vt 0.062500 0.437500
vt 0.687500 0.062500
vt 0.437500 1.000000
vt 0.562500 0.062500
vt 0.062500 0.000000
vt -0.000000 0.937500
vt 1.000000 1.000000
vt 1.000000 0.000000
vt -0.000000 0.000000
vn 0.0000 1.0000 0.0000
vn 0.0000 0.0000 -1.0000
vn 0.0000 -1.0000 -0.0000
vn 1.0000 0.0000 0.0000
vn 0.0000 0.0000 1.0000
vn -1.0000 0.0000 0.0000
usemtl Material
s 1
f 1/1/1 2/2/1 3/3/1
f 4/4/1 5/5/1 1/6/1
f 6/7/2 7/8/2 8/9/2
f 9/10/3 10/11/3 11/12/3
f 9/13/2 8/14/2 12/15/2
f 13/16/4 14/17/4 15/18/4
f 16/19/5 13/20/5 17/21/5
f 18/22/6 19/23/6 20/24/6
f 21/25/2 4/4/2 7/26/2
f 22/27/5 16/19/5 17/21/5
f 2/28/1 23/29/1 24/30/1
f 22/31/5 25/32/5 26/33/5
f 27/34/3 28/35/3 10/36/3
f 29/37/1 30/38/1 31/39/1
f 10/40/3 32/41/3 11/42/3
f 33/43/6 18/44/6 20/45/6
f 34/46/6 20/45/6 35/47/6
f 23/48/5 26/49/5 24/50/5
f 11/51/3 36/52/3 37/53/3
f 32/54/3 38/55/3 36/52/3
f 8/56/2 39/57/2 40/58/2
f 41/59/1 35/60/1 5/5/1
f 17/61/5 15/62/5 25/63/5
f 7/64/2 42/65/2 39/57/2
f 2/28/1 35/66/1 43/67/1
f 12/15/2 40/68/2 44/69/2
f 15/70/4 29/71/4 31/72/4
f 45/73/6 46/74/6 19/75/6
f 47/76/4 48/77/4 14/78/4
f 48/79/4 29/71/4 14/80/4
f 20/81/6 43/82/6 35/83/6
f 49/84/3 11/12/3 37/85/3
f 30/86/5 15/62/5 31/87/5
f 50/88/5 26/89/5 46/74/5
f 3/90/1 24/91/1 30/38/1
f 24/50/5 25/92/5 30/93/5
f 51/94/3 16/19/3 28/95/3
f 6/96/2 33/97/2 21/98/2
f 48/99/4 42/65/4 52/100/4
f 36/101/6 50/88/6 45/73/6
f 40/58/4 48/99/4 53/102/4
f 18/103/6 36/104/6 45/105/6
f 54/106/4 47/107/4 13/16/4
f 27/108/4 47/109/4 51/110/4
f 52/111/1 3/112/1 29/113/1
f 21/25/2 34/114/2 41/59/2
f 12/115/3 27/34/3 10/36/3
f 42/65/1 1/116/1 52/111/1
f 50/88/5 55/117/5 22/118/5
f 27/108/4 40/68/4 53/119/4
f 56/120/6 37/121/6 18/103/6
f 9/122/2 56/123/2 6/96/2
f 28/95/3 55/124/3 32/125/3
f 19/126/6 23/48/6 43/82/6
f 1/1/1 5/127/1 2/2/1
f 4/4/1 41/59/1 5/5/1
f 6/7/2 21/128/2 7/8/2
f 9/10/3 12/129/3 10/11/3
f 9/13/2 6/130/2 8/14/2
f 13/16/4 47/107/4 14/17/4
f 16/19/5 54/131/5 13/20/5
f 18/22/6 45/132/6 19/23/6
f 21/25/2 41/59/2 4/4/2
f 22/27/5 55/124/5 16/19/5
f 2/28/1 43/67/1 23/29/1
f 22/31/5 17/133/5 25/32/5
f 27/34/3 51/134/3 28/35/3
f 29/37/1 3/90/1 30/38/1
f 10/40/3 28/135/3 32/41/3
f 33/43/6 56/136/6 18/44/6
f 34/46/6 33/43/6 20/45/6
f 23/48/5 46/137/5 26/49/5
f 11/51/3 32/54/3 36/52/3
f 32/54/3 55/117/3 38/55/3
f 8/56/2 7/64/2 39/57/2
f 41/59/1 34/114/1 35/60/1
f 17/61/5 13/138/5 15/62/5
f 7/64/2 4/139/2 42/65/2
f 2/28/1 5/140/1 35/66/1
f 12/15/2 8/14/2 40/68/2
f 15/70/4 14/80/4 29/71/4
f 45/73/6 50/88/6 46/74/6
f 47/76/4 53/141/4 48/77/4
f 48/79/4 52/142/4 29/71/4
f 20/81/6 19/126/6 43/82/6
f 49/84/3 9/10/3 11/12/3
f 30/86/5 25/63/5 15/62/5
f 50/88/5 22/118/5 26/89/5
f 3/90/1 2/143/1 24/91/1
f 24/50/5 26/49/5 25/92/5
f 51/94/3 54/131/3 16/19/3
f 6/96/2 56/123/2 33/97/2
f 48/99/4 39/57/4 42/65/4
f 36/101/6 38/55/6 50/88/6
f 40/58/4 39/57/4 48/99/4
f 18/103/6 37/121/6 36/104/6
f 54/106/4 51/144/4 47/107/4
f 27/108/4 53/119/4 47/109/4
f 52/111/1 1/116/1 3/112/1
f 21/25/2 33/145/2 34/114/2
f 12/115/3 44/146/3 27/34/3
f 42/65/1 4/139/1 1/116/1
f 50/88/5 38/55/5 55/117/5
f 27/108/4 44/69/4 40/68/4
f 56/120/6 49/147/6 37/121/6
f 9/122/2 49/148/2 56/123/2
f 28/95/3 16/19/3 55/124/3
f 19/126/6 46/137/6 23/48/6
